<?xml version="1.0" encoding="utf-8"?>
<!-- Generator: Adobe Illustrator 23.0.1, SVG Export Plug-In . SVG Version: 6.00 Build 0)  -->
<svg version="1.1" id="Layer_1" xmlns="http://www.w3.org/2000/svg" xmlns:xlink="http://www.w3.org/1999/xlink" x="0px" y="0px"
	 viewBox="0 0 1920 1080" style="enable-background:new 0 0 1920 1080;" xml:space="preserve">
<style type="text/css">
	.st0{fill:#007CBA;}
	.st1{fill:#F4B223;}
	.st2{fill:#002856;}
	.st3{fill:#FFFFFF;}
</style>
<g>
	<g>
		<path class="st0" d="M1297.5,573.97c0,0-49.66-18.88-119.13-34.06l0.48-46.51l-3.74-4.56l9.42-39.75
			c-58.91-16.39-150.66-25.61-224.53-25.61c-76.93,0-151.77,8.9-223.61,25.61c-0.01,0-0.03,0.01-0.04,0.01l8.49,35.04l-0.62,55.28
			c-64.85,10.79-121.72,34.56-121.72,34.56l9.14,36.44l-0.01,112.1c25.07-8.88,50.6-16.78,76.55-23.64l0-27.23
			c4.75-1.29,9.52-2.54,14.28-3.75l0,27.1l1.03-0.01c75.76-18.71,154.96-28.7,236.51-28.7c73.87,0,145.81,8.21,215.02,23.65
			l12.29-9.83l0,12.65c26.08,6.17,51.76,13.41,76.99,21.61l0-80.5l16.79,5.51L1297.5,573.97z"/>
		<path class="st1" d="M1065.09,532.04l0.64-2.71l0.54-2.32l2.99-12.79l2.61-11.16l0.31-1.33l0.44,2.26l2.65,13.54l3.09,15.82
			l0.03,0.13C1074.04,532.98,1069.59,532.5,1065.09,532.04 M952.8,608.01c-2.3,0.02-4.62,0.05-6.94,0.08v-58.42l0-4.32l0-2.16
			l-1.58-1.48l-3.15-2.96c-0.6-0.56-1.19-1.11-1.79-1.67l6.7-0.16l0.28-0.01l2.18,8.4l2.07,8.01l2.22,8.6V608.01z M1272.41,576.12
			c-27.95-9.32-57.01-17.46-86.35-24.21l-15.56-3.57l-7.77-1.79l0.09,0.38c-0.2-0.04-0.4-0.08-0.6-0.12l0.61-0.49l3.69-2.95
			l1.85-1.48l0.02-2.37l0.05-4.73l0.17-16.25l0.17-16.19l0.04-3.62l0.02-1.81l-1.15-1.4l-2.3-2.8l-1.13-1.37l1.05-4.46l1.59-6.73
			l1.9-8.03l2.4-10.14l1.2-5.07l-5.12-0.98l-10.23-1.96c-17.51-3.35-35.29-6.28-52.95-8.73l0.04-0.09l-6.77-0.88l-11.45-1.38
			c-5.14-0.62-10.28-1.2-15.42-1.74l0-0.05l-4.6-0.48l-5.95-0.55l-5.05-0.51l-6.01-0.61l0.02,0.17c-11.66-0.9-26.35-1.75-37.41-2.35
			c-9.72-0.52-16.86-0.86-17.56-0.9l-13.17-0.62c-2.56-0.07-4.43-0.1-6.03-0.1c-1.95,0-3.49,0.04-5.19,0.08
			c-2,0.05-4.22,0.1-7.65,0.1h-0.35l-4.43-0.01l-2.22,0l-1.49,1.64l-1.36,1.5l0.04-3.21l-5.16,0.12l-10.33,0.23
			c-5.08,0.12-13.34,0.44-19.36,0.68l0-0.08l-5.33,0.2l-10.66,0.6c-7.99,0.45-16.1,1.01-24.12,1.65l-2.42,0.19l0-0.1l-5.55,0.52
			l-11.08,1.09c-9.09,0.89-18.31,1.92-27.41,3.06l-11.07,1.38l-5.53,0.69l1.3,5.42l2.6,10.84l0.38,1.6l2.27,9.44l-0.29,28.17
			c-4.18,0.56-8.29,1.14-12.29,1.73l0.12-10.19l0.33-28.44l0.14-11.88l0.07-5.94l-5.86,0.96l-11.72,1.92
			c-9.02,1.48-18.17,3.11-27.21,4.84l-10.29,1.97l-5.14,0.98l1.23,5.09l2.47,10.18l2.62,10.82l-0.24,21.54l-0.4,35.11l-0.09,7.87
			c-4.85,1-9.68,2.03-14.49,3.1l-10.09,2.25l-5.04,1.13l0.03,0.12c-26.07,6.27-51.95,13.66-76.94,21.99l-8.77,2.92l-4.39,1.46
			l1.13,4.48l2.25,8.97l1.33,5.29l2.49,9.93l0,17.83l0,61.69l0,13.77l0,6.88l6.54-2.14l13.08-4.29c8.73-2.86,17.55-5.6,26.23-8.15
			l7.16-2.11l3.58-1.05v-3.73l0-7.47v-16.36c11.15-3.12,22.42-6.06,33.56-8.73l0.67-0.16v8.87l0,12.38v6.19l6.05-1.32l12.1-2.64
			c9.11-1.99,18.43-3.88,27.72-5.62l8.14-1.52l4.07-0.76l0-4.14v-1.25l0.33,1.03l1.3,4.09l4.23-0.67l8.47-1.34
			c9.48-1.5,19.28-2.9,29.13-4.16l12.41-1.59l0.36-0.05l0.07,0.06l2.16-0.23l4.33-0.47c23.12-2.48,46.73-4.17,70.18-5.03l3.92-0.14
			l1.96-0.07l1.39-1.39l0.36-0.36l0.42,1.62l3.92-0.07l7.84-0.13c5.55-0.09,11.11-0.14,16.67-0.14c9.58,0,19.29,0.14,28.86,0.42
			l4.11,0.12l2.05,0.06l0.4-0.38v0.31l4.74,0.24l9.48,0.47c24.4,1.21,49.01,3.34,73.15,6.33l8.64,1.07l4.32,0.54l0.7-2.66l1.64,1.86
			l1.21,1.37l1.8,0.27l3.61,0.53c20.44,3.01,40.88,6.68,60.74,10.93l4.63,0.99l2.31,0.49l1.85-1.48l3.69-2.96l4.57-3.65l2.96-2.36
			l3.76-3l1.88-1.5l0-2.4l0-4.8V629.9l0-8l0-4h0l0-5.57l0-10.05c2.07,0.5,4.14,1.01,6.2,1.52v69.77l0,7.68v3.84l3.71,0.98l7.43,1.96
			c9.03,2.39,18,4.9,26.68,7.48l12.82,3.81l6.41,1.9l0-6.68l0-13.37V620.1c1.48,0.48,2.96,0.96,4.43,1.44l10.18,3.34l5.09,1.67
			l1.3-5.2l2.6-10.39l1.1-4.39l3.17-12.62l2.25-8.97l1.13-4.48l-4.39-1.46L1272.41,576.12z"/>
		<path class="st2" d="M1089.1,580.43l-6.43-0.78c-10.95-1.32-22.01-2.47-32.99-3.44v-2.24c12.87,1.15,25.72,2.55,38.35,4.18
			l1.07,0.14V580.43z M1089.1,621.14c-13.04-1.66-26.25-3.09-39.42-4.25v-2.24c8.67,0.78,17.35,1.67,25.93,2.66l8.59,1l2.21-8.36
			l2.44-9.24l0.26-0.98V621.14z M1055.68,499.64l2.36-10.11l1.17-5.01l0.04-0.17l3.71,0.37c4.65,0.47,14.54,1.57,14.99,1.62
			l2.36,0.27l-0.1,9.8l-0.04,3.8l2.5,2.86l0.6,0.69l-5.75-0.73l2.65,13.54l3.09,15.82l1.34,6.85c-8.51-1.05-17.07-1.97-25.66-2.81
			l1.93-8.25l0.54-2.32l2.99-12.79l2.61-11.16l-11.41-1.05c-0.07-0.01-0.14-0.01-0.21-0.02L1055.68,499.64z M986.33,483.58
			l-0.17,14.63c-3.42-6.85-6.84-13.73-10.27-20.54l10.62-10.79L986.33,483.58z M957.79,612.97c-5.56,0.01-11.24,0.09-16.91,0.2
			v-63.49l0-4.32l-3.15-2.96c-2.66-2.49-5.32-4.97-7.99-7.45l-2.64-2.45c3.08-0.1,6.14-0.25,9.22-0.33l9.61-0.23l0.12-9.61
			l0.08-6.24l0.01-0.8c1.82,3.68,3.65,7.36,5.47,11.05l2.59,5.24l-4.11-0.01l3.24,12.51l2.07,8.01l2.38,9.21V612.97z M836.32,549.39
			c-1.66-1.42-10.14-8.62-10.14-8.62s18.7-2.25,20.3-2.43L836.32,549.39z M1184.95,556.77l-15.56-3.57l0.04,0.17
			c-6.2-1.31-12.48-2.48-18.75-3.68l3.48-2.8l5.55-4.45l3.7-2.96l0.05-4.73l0.17-16.25l0.17-16.19l0.04-3.63l-2.3-2.8l-2.69-3.27
			l1.63-6.86l1.59-6.73l1.9-8.04l2.4-10.14l-10.23-1.96c-19.41-3.71-39.16-6.91-58.7-9.51l-0.66-0.09l0.03-0.06l-11.45-1.39
			c-6.62-0.8-13.25-1.53-19.88-2.2l0-0.05l-5.95-0.55l-5.09-0.52l0,0.05c-12.03-1.05-29.89-2.11-43.18-2.83l0,0l-0.18-0.01
			c-9.53-0.51-16.65-0.85-17.35-0.89l-13.17-0.62c-2.4-0.07-4.23-0.09-5.8-0.09c-4.23,0-6.5,0.17-12.83,0.17h-0.36l-4.43-0.01
			l-2.97,3.28c-2.41,2.66-4.82,5.33-7.23,8.01l0.01-0.92l0.13-10.33l-10.33,0.23c-6.71,0.15-18.94,0.66-24.53,0.9l0-0.11l-10.66,0.6
			c-7.94,0.45-16.02,1-24,1.64l-7.88,0.63v-0.03l-11.08,1.09c-9.06,0.89-18.24,1.92-27.28,3.05l-11.06,1.39l2.6,10.84l0.38,1.6
			l2.41,10.04l-0.33,31.93l-0.01,1.18c-7.41,0.97-14.87,2.02-22.29,3.16l0.18-16.05l0.33-28.43l0.14-11.88l-11.73,1.92
			c-8.97,1.47-18.08,3.09-27.08,4.81l-10.28,1.97l2.47,10.18l2.77,11.42l-0.25,22.17l-0.4,35.11l-0.13,11.9
			c-6.14,1.25-12.27,2.53-18.34,3.89l-10.09,2.25l0.01,0.04l-4.68,1.12c-26.03,6.25-51.86,13.63-76.79,21.94l-8.77,2.92l2.25,8.97
			l1.33,5.29l2.64,10.53l0,18.44l0,61.69l0,13.77l13.08-4.29c8.78-2.88,17.65-5.63,26.38-8.19l7.16-2.11l0-7.47v-20.14
			c12.39-3.53,24.94-6.82,37.38-9.81l3.36-0.81l2.14-2.71c0.44-0.56,0.88-1.11,1.32-1.66v18.74l0,12.38l12.1-2.64
			c9.16-2,18.53-3.9,27.86-5.64l8.14-1.53l0-8.28v-19.32c0.58-0.1,1.17-0.21,1.75-0.31l1.59,5L793,656.7l2.6,8.17l8.47-1.34
			c9.53-1.51,19.38-2.92,29.28-4.18l12.41-1.59l-1.39-3.78c0.27,0.23,0.54,0.46,0.8,0.7l3.28,2.86l4.33-0.46
			c23.24-2.5,46.97-4.2,70.53-5.05l3.92-0.14l2.77-2.78c1.25-1.25,2.5-2.49,3.75-3.74l1.63,6.25l7.85-0.13
			c5.58-0.09,11.17-0.14,16.75-0.14c9.62,0,19.38,0.14,29.01,0.42l4.11,0.12l3-2.81c1.43-1.34,2.87-2.67,4.3-4.01l0,7.04l9.48,0.47
			c24.52,1.21,49.26,3.35,73.51,6.36l8.64,1.07l1.97-7.45l5.4,6.1l2.41,2.73l3.61,0.53c20.55,3.02,41.09,6.72,61.06,10.98l4.63,0.99
			l3.69-2.96l4.58-3.65l2.97-2.36l3.76-2.99l0-4.8V629.9l0-8l-7.81-1.74c-9.3-2.07-18.87-4.04-28.44-5.87l-11.84-2.26v-9.69
			l8.11,1.55c9.18,1.75,18.56,3.68,27.86,5.75l12.13,2.69l0-12.42v-3.95c5.41,1.28,10.82,2.6,16.17,3.96v73.65l0,7.68l7.43,1.96
			c9.06,2.4,18.09,4.93,26.82,7.52l12.82,3.81l0-13.37v-67.89c3.66,1.15,7.32,2.32,10.97,3.52l10.18,3.34l2.6-10.39l1.1-4.39
			l3.17-12.62l2.26-8.97l-8.77-2.92C1243.04,571.58,1214.14,563.48,1184.95,556.77"/>
		<path class="st2" d="M693.22,606.55c1.66-0.47,3.33-0.94,5-1.41v14.62c-1.66,0.45-3.33,0.91-5,1.38V606.55z M683.25,634.37
			c8.24-2.42,16.57-4.74,24.94-6.95c0-11.77,0-23.55,0-35.31c-8.38,2.21-16.69,4.53-24.94,6.95
			C683.24,610.83,683.24,622.6,683.25,634.37"/>
		<path class="st1" d="M698.22,605.14c-1.67,0.47-3.33,0.93-5,1.41v14.59c1.66-0.46,3.33-0.92,5-1.38V605.14z"/>
		<path class="st2" d="M785.53,585.29c2.07-0.37,4.15-0.73,6.23-1.09v15.08c-2.09,0.35-4.16,0.71-6.23,1.07V585.29z M775.55,612.28
			c8.68-1.63,17.41-3.13,26.18-4.53c0-11.77,0-23.54,0-35.31c-8.77,1.4-17.5,2.91-26.18,4.53
			C775.55,588.74,775.55,600.51,775.55,612.28"/>
		<path class="st1" d="M791.76,584.2c-2.08,0.36-4.16,0.72-6.23,1.09v15.06c2.07-0.36,4.15-0.72,6.23-1.07V584.2z"/>
		<path class="st2" d="M882.96,572.93c2.85-0.22,5.7-0.42,8.56-0.62v42.95c-2.86,0.19-5.72,0.39-8.56,0.61V572.93z M872.99,626.67
			c9.48-0.82,18.98-1.49,28.51-2.04c0-20.98,0-41.96,0-62.94c-9.53,0.55-19.03,1.23-28.51,2.04
			C872.99,584.72,872.99,605.7,872.99,626.67"/>
		<path class="st1" d="M891.52,572.31c-2.86,0.19-5.71,0.4-8.56,0.62v42.93c2.84-0.21,5.7-0.42,8.56-0.61V572.31z"/>
		<path class="st3" d="M995.06,458.2L995.06,458.2c0.7,2.83,1.34,5.42,1.47,5.94c-0.2,17.86-0.41,35.72-0.61,53.58
			c0.02,0.03,0.03,0.06,0.05,0.09l2.4,4.83c17.62,0.65,35.22,1.72,52.79,3.27c1.18-5.04,2.36-10.07,3.53-15.11
			c-11.59-1.06-23.19-1.93-34.81-2.6c0.04-4.22,0.07-8.45,0.11-12.67c8.66,0.5,17.32,1.11,25.98,1.83
			c1.18-5.04,2.36-10.09,3.54-15.13c-9.76-0.85-19.52-1.55-29.29-2.12c0.04-4.22,0.07-8.44,0.11-12.67
			c11.62,0.68,23.22,1.55,34.82,2.62c0.08-5.14,0.15-10.27,0.23-15.41c-20.24-1.87-62.1-3.85-62.1-3.85L995.06,458.2z"/>
		<path class="st3" d="M832.56,458.27c1.03,4.28,2.05,8.56,3.08,12.84c-0.09,8.33-0.34,32.44-0.47,45.05l-0.02,1.57v0.07
			c-0.02,1.52-0.03,2.81-0.04,3.82l-0.03,2.45c0.73,0.66,4.33,3.9,5.4,4.86c18.37-2.15,36.77-3.81,55.21-4.97
			c1.88-1.95,3.77-3.9,5.65-5.85c0.26-22.05,0.51-44.1,0.77-66.15c-7.93,0.45-15.85,0.99-23.77,1.62
			c-0.22,18.75-0.44,37.5-0.66,56.25c-6.26,0.5-12.52,1.07-18.77,1.68c0.22-18.75,0.44-37.51,0.66-56.26
			C850.56,456.13,841.55,457.14,832.56,458.27"/>
		<path class="st3" d="M766.75,468.67c1.02,4.21,2.04,8.42,3.06,12.64c-0.22,19.51-0.44,39.02-0.66,58.53
			c18.22-3.44,36.51-6.39,54.85-8.84c1.17-5.3,2.35-10.59,3.52-15.89c-11.56,1.5-23.1,3.2-34.61,5.1
			c0.22-18.77,0.44-37.54,0.65-56.3C784.61,465.37,775.67,466.96,766.75,468.67"/>
		<path class="st3" d="M1090.52,464.04c-0.11,10.82-0.22,21.65-0.33,32.47c1.8,2.06,3.6,4.13,5.4,6.2
			c11.56,1.53,23.09,3.25,34.6,5.17c-0.04,4.22-0.08,8.44-0.12,12.66c-13.34-2.22-26.71-4.19-40.11-5.88
			c1.03,5.27,2.06,10.55,3.09,15.82c18.34,2.38,36.64,5.25,54.87,8.63c1.86-1.49,3.72-2.98,5.57-4.46
			c0.11-10.82,0.22-21.63,0.33-32.44c-1.79-2.18-3.57-4.35-5.36-6.52c-11.48-2.13-23-4.06-34.53-5.8c0.03-4.22,0.07-8.43,0.11-12.65
			c12.27,1.85,24.51,3.92,36.72,6.21c1.17-4.92,2.33-9.84,3.5-14.76c-19.3-3.7-38.69-6.84-58.13-9.42
			C1094.26,460.85,1092.39,462.44,1090.52,464.04"/>
		<path class="st3" d="M1064.25,455.55l-0.28,19.25c4.73,0.48,14.81,1.59,15.13,1.63c0.83-3.07,5.07-18.68,5.07-18.68
			C1077.52,456.94,1070.89,456.22,1064.25,455.55"/>
		<path class="st3" d="M909.75,451.58c0,0,2.51,10.18,3.19,13.03c-0.22,19.48-0.44,38.95-0.66,58.43c7.93-0.37,15.86-0.65,23.8-0.84
			c0.07-5.95,0.15-11.9,0.23-17.86c3.4-3.61,6.79-7.19,10.19-10.77c4.68,9.41,9.37,18.86,14.06,28.34c8.83,0,17.66,0.11,26.48,0.34
			c-7.75-15.59-15.51-31.09-23.26-46.5l24.7-25.08c-8.97-0.24-17.95-0.37-26.92-0.38c-8.31,9.17-16.61,18.45-24.92,27.82
			c0.11-9.18,0.23-18.37,0.34-27.55C928.29,450.76,909.75,451.58,909.75,451.58"/>
		<path class="st3" d="M708.19,627.42c-8.37,2.21-16.7,4.53-24.95,6.95c0-11.77,0-23.54,0-35.31c8.25-2.42,16.57-4.74,24.95-6.95
			C708.19,603.87,708.19,615.65,708.19,627.42 M735.77,631.33c0-18.93,0-37.87,0-56.8c-2.5-1.98-5.01-3.95-7.5-5.91
			c-25.94,6.22-51.31,13.48-75.97,21.7c1.42,5.66,2.85,11.34,4.27,17.01c0,27.12,0.01,54.24,0,81.37
			c8.81-2.88,17.69-5.65,26.67-8.29c0-9.22,0-18.43,0-27.64c14.79-4.34,29.82-8.36,45.03-12.01
			C730.77,637.62,733.27,634.47,735.77,631.33"/>
		<path class="st3" d="M775.55,576.97c8.68-1.62,17.41-3.13,26.18-4.53c0,11.77,0,23.54,0,35.31c-8.77,1.4-17.5,2.91-26.18,4.53
			C775.55,600.51,775.55,588.74,775.55,576.97 M802.5,653.68c9.8-1.55,19.67-2.96,29.57-4.22c-3.23-8.8-6.46-17.59-9.69-26.36
			c0.11-0.02,0.21-0.03,0.32-0.04c2.6-2.92,5.21-5.82,7.8-8.71c0-18.93,0-37.87,0-56.8c-2.6-2.23-5.21-4.43-7.8-6.64
			c-27.02,3.71-53.69,8.5-79.84,14.34c1.52,5.8,3.01,11.62,4.53,17.43c0,27.12,0,54.25,0,81.37c9.32-2.03,18.71-3.93,28.16-5.7
			c0-9.21,0-18.43,0-27.64c6.17-1.15,12.38-2.25,18.6-3.29C796.94,636.15,799.71,644.91,802.5,653.68"/>
		<path class="st3" d="M872.99,563.73c9.48-0.81,18.98-1.49,28.51-2.04c0,20.98,0,41.96,0,62.94c-9.53,0.55-19.03,1.23-28.51,2.04
			C872.99,605.7,872.99,584.72,872.99,563.73 M922.95,642.06c2.65-2.66,5.31-5.3,7.95-7.93c0-6.92,0-13.84,0-20.77
			c0-21.22,0-42.45,0-63.68c-2.65-2.48-5.3-4.95-7.95-7.42c-23.87,0.86-47.64,2.57-71.23,5.1c-2.62,2.84-5.23,5.69-7.85,8.55
			c0,28.15,0,56.29,0,84.44c2.62,2.26,5.23,4.52,7.85,6.8C875.3,644.62,899.09,642.92,922.95,642.06"/>
		<path class="st3" d="M989.27,641.79c2.65-2.48,5.31-4.96,7.96-7.42v-84.23l-1.3-5.08l-0.72-2.84
			c-10.73-0.37-21.47-0.61-32.22-0.64c1.59,6.15,3.18,12.3,4.78,18.45c0,20.98,0,41.96,0,62.94c-2.62-0.02-5.24-0.03-7.86-0.03
			c-7.21,0-14.41,0.08-21.62,0.23c1.6,6.11,3.18,12.22,4.77,18.34c5.64-0.09,11.28-0.14,16.92-0.14
			C969.74,641.37,979.51,641.51,989.27,641.79"/>
		<path class="st3" d="M1084.6,649.04c1.5-5.69,3-11.37,4.5-17.05v-0.8c-16.37-2.1-32.85-3.81-49.4-5.12v-22.26
			c12.4,0.97,24.75,2.18,37.06,3.6c1.57-5.96,3.15-11.91,4.71-17.86c-13.86-1.67-27.78-3.06-41.77-4.16v-22.26
			c16.55,1.3,33.03,3.01,49.4,5.12v-9.42v-4.63l0.2-0.17v-4.17c-27.64-3.56-55.62-5.99-83.71-7.25c1.58,6.21,3.18,12.43,4.76,18.65
			c0,27.12,0,54.25,0,81.37C1035.26,643.85,1060.05,646,1084.6,649.04"/>
		<path class="st3" d="M1267.68,590.31c-27.5-9.17-55.89-17.14-84.97-23.82l3.39,14.66v0.01c0.37,1.6,0.74,3.2,1.11,4.81
			c8.41,1.97,16.76,4.05,25.03,6.24c0,27.12,0,54.25,0,81.37c9.12,2.41,18.16,4.94,27.12,7.6c0-27.12,0-54.25,0-81.37
			c8.09,2.4,16.11,4.91,24.05,7.51C1264.84,601.65,1266.26,595.97,1267.68,590.31"/>
		<path class="st3" d="M1176.13,599.9c0-9.07,0-18.15,0-27.22c-2.52-3.12-5.04-6.22-7.57-9.32c-20.29-4.33-40.89-8.04-61.69-11.1
			c-2.59,2.18-5.19,4.36-7.79,6.56c0,28.15,0,56.29,0,84.44c2.59,2.92,5.19,5.85,7.79,8.79c20.81,3.06,41.4,6.77,61.69,11.1
			c2.53-2.02,5.06-4.03,7.57-6.03c0-9.07,0-18.14,0-27.22c-9.31-2.07-18.71-4.01-28.15-5.81c0,5.49,0,10.98,0,16.47
			c-6.7-1.28-13.43-2.49-20.19-3.63c0-20.98,0-41.96,0-62.94c6.76,1.15,13.48,2.36,20.19,3.63c0,5.49,0,10.98,0,16.47
			C1157.42,595.9,1166.81,597.84,1176.13,599.9"/>
	</g>
</g>
</svg>
