<?xml version="1.0" encoding="UTF-8"?>
<svg xmlns="http://www.w3.org/2000/svg" xmlns:xlink="http://www.w3.org/1999/xlink" viewBox="0 0 48 48" version="1.1" width="480px" height="480px">
<g id="surface1">
<path style=" fill:#E39D36;" d="M 32.492188 29.09375 L 19.3125 36.921875 C 19.289063 36.921875 22.386719 40.949219 22.386719 40.949219 L 34.992188 33.300781 C 36.140625 32.609375 36.519531 31.121094 35.839844 29.964844 C 35.15625 28.800781 33.65625 28.40625 32.492188 29.09375 "/>
<path style=" fill:#EDA740;" d="M 36.023438 29.550781 L 22.84375 37.378906 C 22.820313 37.378906 25.917969 41.40625 25.917969 41.40625 L 38.523438 33.757813 C 39.671875 33.066406 40.050781 31.578125 39.371094 30.421875 C 38.6875 29.253906 37.1875 28.863281 36.023438 29.550781 "/>
<path style=" fill:#FFB74D;" d="M 38.941406 30.429688 L 26.585938 37.769531 C 26.558594 37.769531 26.613281 37.769531 26.585938 37.769531 L 20.71875 34.410156 L 23.667969 36.019531 C 24.953125 36.722656 26.601563 36.5 27.558594 35.390625 C 28.882813 33.855469 28.417969 31.574219 26.71875 30.644531 L 14.367188 23.496094 C 13.21875 22.867188 11.824219 22.878906 10.683594 23.527344 L 5.042969 27 C 5.027344 27.023438 5 38 5 38 L 9.085938 35.292969 L 24.195313 43.539063 C 25.371094 44.179688 26.800781 44.152344 27.953125 43.457031 L 41.722656 35.109375 C 43 34.339844 43.421875 32.683594 42.664063 31.398438 C 41.90625 30.105469 40.238281 29.671875 38.941406 30.429688 "/>
<path style=" fill:#EDA740;" d="M 26.535156 37.796875 L 26.585938 37.769531 L 25.21875 36.894531 L 14.535156 30.851563 L 22.570313 37.441406 C 23.695313 38.359375 25.265625 38.5 26.535156 37.796875 "/>
<path style=" fill:#FFCC80;" d="M 24.492188 35.160156 C 23.589844 34.695313 23.917969 33.886719 24.382813 32.984375 C 24.847656 32.082031 25.277344 31.429688 26.179688 31.894531 C 27.082031 32.359375 27.433594 33.46875 26.96875 34.371094 C 26.503906 35.273438 25.394531 35.625 24.492188 35.160156 "/>
<path style=" fill:#90CAF9;" d="M 22 4 L 12 4 L 12 20 L 22 20 C 24.210938 20 26 21.789063 26 24 L 26 8 C 26 5.789063 24.210938 4 22 4 Z "/>
<path style=" fill:#42A5F5;" d="M 30 4 C 27.789063 4 26 5.789063 26 8 L 26 24 C 26 21.789063 27.789063 20 30 20 L 40 20 L 40 4 Z "/>
</g>
</svg>
