<?xml version="1.0" encoding="utf-8"?>
<!-- Generator: Adobe Illustrator 21.0.2, SVG Export Plug-In . SVG Version: 6.00 Build 0)  -->
<svg xmlns="http://www.w3.org/2000/svg" xmlns:xlink="http://www.w3.org/1999/xlink" version="1.1" id="Layer_1" x="0px" y="0px" viewBox="0 0 48 48" style="enable-background:new 0 0 48 48;" xml:space="preserve" width="480px" height="480px">
<path style="fill:#E39D36;" d="M32.4,28.1l-13.2,7.8l3.1,4L35,32.3c1.1-0.7,1.5-2.2,0.8-3.3C35.1,27.8,33.6,27.4,32.4,28.1z"/>
<g id="surface1_1_">
	<path style="fill:#90CAF9;" d="M34.5,26.5c-4.7,4.7-12.3,4.7-16.9,0s-4.7-12.3,0-16.9c4.7-4.7,12.3-4.7,16.9,0S39.2,21.8,34.5,26.5   z"/>
	<path style="fill:#1E88E5;" d="M26,31c-3.3,0-6.6-1.3-9.2-3.8c-5.1-5.1-5.1-13.3,0-18.4C19.3,6.4,22.5,5,26,5h0   c3.5,0,6.7,1.4,9.2,3.8c2.5,2.5,3.8,5.7,3.8,9.2c0,3.5-1.3,6.7-3.8,9.2l0,0C32.6,29.7,29.3,31,26,31z M26,7c-2.9,0-5.7,1.1-7.8,3.2   c-4.3,4.3-4.3,11.2,0,15.5c4.3,4.3,11.2,4.3,15.5,0l0,0c2.1-2.1,3.2-4.8,3.2-7.8c0-2.9-1.1-5.7-3.2-7.8S28.9,7,26,7L26,7z"/>
	<path style="fill:#1E88E5;" d="M36,13H16c-0.6,0-1-0.4-1-1s0.4-1,1-1h20c0.6,0,1,0.4,1,1S36.5,13,36,13z"/>
	<path style="fill:#1E88E5;" d="M36,25H16c-0.6,0-1-0.4-1-1s0.4-1,1-1h20c0.6,0,1,0.4,1,1S36.5,25,36,25z"/>
	<rect x="14" y="17" style="fill:#1E88E5;" width="24" height="2"/>
	<rect x="25" y="6" style="fill:#1E88E5;" width="2" height="24"/>
	<path style="fill:#1E88E5;" d="M26,31c-3.9,0-7-5.7-7-13c0-7.3,3.1-13,7-13c3.9,0,7,5.7,7,13C33,25.3,29.9,31,26,31z M26,7   c-2.4,0-5,4.5-5,11s2.6,11,5,11c2.4,0,5-4.5,5-11S28.4,7,26,7z"/>
</g>
<path style="fill:#EDA740;" d="M36,28.5l-13.2,7.8l3.1,4l12.6-7.6c1.1-0.7,1.5-2.2,0.8-3.3C38.6,28.3,37.1,27.9,36,28.5z"/>
<path style="fill:#FFB74D;" d="M38.9,29.4l-12.4,7.3l-5.9-3.4l2.9,1.6c1.3,0.7,2.9,0.5,3.9-0.6c1.3-1.5,0.9-3.8-0.8-4.7l-12.4-6.8  c-1.1-0.6-2.5-0.6-3.7,0L5,26.1c0,0,0,0,0,0.1v10.7l4-2.5l15.1,8.2c1.2,0.6,2.6,0.6,3.8-0.1l13.8-8.3c1.3-0.8,1.7-2.4,0.9-3.7  C41.9,29.1,40.2,28.7,38.9,29.4z"/>
<path style="fill:#EDA740;" d="M26.5,36.8l-1.3-0.9l-10.7-6l8,6.6C23.7,37.4,25.2,37.5,26.5,36.8z"/>
<path style="fill:#FFCC80;" d="M24.4,34.2c-0.9-0.5-0.6-1.3-0.1-2.2s0.9-1.6,1.8-1.1c0.9,0.5,1.3,1.6,0.8,2.5  C26.5,34.3,25.4,34.6,24.4,34.2z"/>
</svg>
