<?xml version="1.0"?>
<svg xmlns="http://www.w3.org/2000/svg" xmlns:xlink="http://www.w3.org/1999/xlink" version="1.1" viewBox="0 0 224 224" width="480px" height="480px"><g fill="none" fill-rule="nonzero" stroke="none" stroke-width="1" stroke-linecap="butt" stroke-linejoin="miter" stroke-miterlimit="10" stroke-dasharray="" stroke-dashoffset="0" font-family="none" font-weight="none" font-size="none" text-anchor="none" style="mix-blend-mode: normal"><path d="M0,224v-224h224v224z" fill="none"/><g><g id="surface1"><path d="M18.66667,32.66667h186.66667v140h-186.66667z" fill="#82c2fb"/><path d="M51.33333,56h121.33333v18.66667h-121.33333z" fill="#0e7be5"/><path d="M51.33333,84h121.33333v9.33333h-121.33333z" fill="#0e7be5"/><path d="M14,177.33333h196v-149.33333h-196zM200.66667,154c-7.72917,0 -14,6.27083 -14,14h-149.33333c0,-7.72917 -6.27083,-14 -14,-14v-102.66667c7.72917,0 14,-6.27083 14,-14h149.33333c0,7.72917 6.27083,14 14,14z" fill="#0e7be5"/><path d="M112,107.33333c-12.88802,0 -23.33333,10.44531 -23.33333,23.33333c0,12.88802 10.44531,23.33333 23.33333,23.33333c12.88802,0 23.33333,-10.44531 23.33333,-23.33333c0,-12.88802 -10.44531,-23.33333 -23.33333,-23.33333M112,144.66667c-7.72917,0 -14,-6.27083 -14,-14c0,-7.72917 6.27083,-14 14,-14c7.72917,0 14,6.27083 14,14c0,7.72917 -6.27083,14 -14,14" fill="#0e7be5"/><path d="M112,154c-5.21354,0 -9.98958,-1.76823 -13.87239,-4.66667h-0.12761v42l14,-14l14,14v-42h-0.12761c-3.88281,2.89844 -8.65885,4.66667 -13.87239,4.66667z" fill="#ffaf38"/></g></g></g></svg>
