<?xml version="1.0" encoding="utf-8"?>
<!-- Generator: Adobe Illustrator 23.0.2, SVG Export Plug-In . SVG Version: 6.00 Build 0)  -->
<svg version="1.1" id="Layer_1" xmlns="http://www.w3.org/2000/svg" xmlns:xlink="http://www.w3.org/1999/xlink" x="0px" y="0px"
	 viewBox="0 0 1920 743.9" style="enable-background:new 0 0 1920 743.9;" xml:space="preserve">
<style type="text/css">
	.st0{fill:#00447C;}
</style>
<g>
	<g>
		<g>
			<path class="st0" d="M1285,36.4l-0.4,25.8l-0.2,14.3c14.7,1.5,29.5,3,44.2,4.8c1,0.1,2,0.2,3,0.3c2.6-9.6,5.2-19.1,7.8-28.7l0,0
				l8-29.6c-20.7-2.5-41.4-4.8-62.1-6.9L1285,36.4z"/>
			<path class="st0" d="M1071.7,33.3c0.8,3.3,1.5,6.6,2.3,9.9c-0.7,58.2-1.3,116.4-2,174.5l3.9,7.8c56.3,2,112.5,5.4,168.6,10.4
				c3.7-15.7,7.4-31.4,11-47.1c-36.2-3.3-72.4-6-108.6-8.1c0.1-13.2,0.2-26.4,0.3-39.5c27,1.6,54,3.5,81,5.7
				c3.7-15.7,7.3-31.5,11-47.2c-30.4-2.6-60.9-4.8-91.4-6.6c0.1-13.2,0.2-26.3,0.3-39.5c36.2,2.1,72.4,4.8,108.6,8.2
				c0.2-16,0.5-32,0.7-48.1c-63.1-5.8-193.8-12-193.8-12C1066,11.2,1069.5,23.8,1071.7,33.3"/>
			<path class="st0" d="M570.9,171.3l-0.5,51.4l0,0c0,2.5-0.1,5-0.1,7.5c2.3,2,4.6,4.1,6.9,6.2c3.3,3,6.7,6,10,9
				c57.3-6.7,114.7-11.9,172.3-15.5c5.9-6.1,11.7-12.2,17.6-18.3c0.8-68.8,1.6-137.6,2.4-206.4c-24.7,1.4-49.5,3.1-74.2,5.1
				c-0.7,58.5-1.4,117-2,175.5c-19.5,1.6-39.1,3.3-58.6,5.3c0.7-58.5,1.4-117,2-175.5c-28.1,2.8-56.2,5.9-84.3,9.4
				c3.2,13.3,6.4,26.7,9.6,40C571.6,100.4,571.3,135.8,570.9,171.3"/>
			<path class="st0" d="M357.1,57.3c3.2,13.1,6.4,26.3,9.5,39.4c-0.7,60.9-1.4,121.7-2,182.6c56.9-10.7,113.9-19.9,171.1-27.6
				c3.7-16.5,7.3-33.1,11-49.6c-36.1,4.7-72.1,10-108,15.9c0.7-58.6,1.4-117.1,2-175.7C412.8,47,384.9,52,357.1,57.3"/>
			<path class="st0" d="M1367.2,42.9c-0.3,33.8-0.7,67.5-1.1,101.3c5.6,6.4,11.2,12.9,16.8,19.3c36,4.8,72,10.2,107.9,16.2
				c-0.1,13.2-0.3,26.3-0.4,39.5c-41.6-6.9-83.3-13.1-125.1-18.3c3.2,16.4,6.4,32.9,9.6,49.4c57.2,7.4,114.3,16.4,171.2,26.9
				c5.8-4.7,11.6-9.3,17.4-13.9c0.3-33.7,0.7-67.5,1-101.2c-5.6-6.8-11.2-13.6-16.7-20.3c-35.8-6.7-71.7-12.7-107.7-18.1
				c0.1-13.2,0.2-26.3,0.3-39.5c38.3,5.8,76.5,12.2,114.6,19.4c3.6-15.4,7.3-30.7,10.9-46.1C1505.9,45.9,1445.4,36,1384.7,28
				C1378.9,32.9,1373.1,37.9,1367.2,42.9"/>
			<path class="st0" d="M1038.4,11.8c-22.2,22.3-44.4,44.8-66.6,67.6c24.2,48.1,48.4,96.5,72.6,145.1c-27.5-0.7-55.1-1.1-82.6-1.1
				c-14.6-29.6-29.2-59.1-43.9-88.4c-10.6,11.2-21.2,22.3-31.8,33.6c-0.2,18.6-0.5,37.1-0.7,55.7c-24.8,0.6-49.5,1.5-74.3,2.6
				c0.7-60.8,1.4-121.5,2-182.3c-2.1-8.9-10-40.6-10-40.6l3.8-0.3C834,2.5,861,1.5,888.1,0.9c-0.3,28.6-0.7,57.3-1.1,86
				C913,57.6,938.9,28.6,964.8,0c28,0,56,0.4,84,1.2c-1.6,1.6-3.3,3.4-4.9,5L1038.4,11.8L1038.4,11.8z"/>
			<path class="st0" d="M174.4,552.6c-26.1,6.9-52.1,14.1-77.8,21.7c0-36.7,0-73.4,0-110.2c25.7-7.6,51.7-14.8,77.8-21.7
				C174.4,479.2,174.4,515.9,174.4,552.6 M0,436.9c4.4,17.7,8.9,35.4,13.3,53.1c0,84.6,0,169.2,0,253.9c27.5-9,55.2-17.6,83.2-25.9
				c0-28.8,0-57.5,0-86.2c46.2-13.5,93-26.1,140.5-37.5c7.8-9.8,15.6-19.7,23.4-29.5c0-59.1,0-118.2,0-177.2
				c-7.8-6.2-15.6-12.3-23.4-18.4C156.1,388.6,76.9,411.2,0,436.9"/>
			<path class="st0" d="M466.2,491.3c-27.4,4.4-54.6,9.1-81.7,14.1c0-36.7,0-73.4,0-110.2c27.1-5.1,54.3-9.8,81.7-14.1
				C466.2,417.8,466.2,454.5,466.2,491.3 M531.7,539c8.1-9.1,16.2-18.1,24.3-27.2c0-59.1,0-118.2,0-177.2
				c-8.1-6.9-16.2-13.8-24.3-20.7c-84.3,11.5-167.5,26.5-249.1,44.7c4.7,18.1,9.4,36.2,14.1,54.4c0,84.6,0,169.2,0,253.9
				c29.1-6.3,58.4-12.3,87.8-17.8c0-28.7,0-57.5,0-86.2c19.3-3.6,38.6-7,58.1-10.3c8.7,27.3,17.3,54.6,26,82
				c30.6-4.8,61.4-9.2,92.3-13.2c-10.1-27.4-20.1-54.9-30.2-82.2C531,539.1,531.3,539.1,531.7,539"/>
			<path class="st0" d="M777.5,543.9c-29.7,1.7-59.4,3.8-88.9,6.4c0-65.5,0-130.9,0-196.4c29.6-2.5,59.2-4.7,88.9-6.4
				C777.5,413,777.5,478.5,777.5,543.9 M622.2,302.8c-8.2,8.8-16.3,17.8-24.5,26.7c0,87.8,0,175.6,0,263.5
				c8.2,7,16.3,14.1,24.5,21.2c73.6-7.9,147.8-13.2,222.2-15.9c8.3-8.3,16.6-16.6,24.8-24.7c0-87.8,0-175.6,0-263.5
				c-8.3-7.8-16.6-15.4-24.8-23.2C769.9,289.6,695.8,294.9,622.2,302.8"/>
			<path class="st0" d="M984.2,342.4c0,65.5,0,130.9,0,196.4c-30.7-0.3-61.3,0-92,0.6c5,19.1,9.9,38.1,14.9,57.2
				c48.1-0.8,96.2-0.5,144.2,0.9c8.3-7.7,16.6-15.5,24.8-23.2V286.9c-35.6-1.3-71.2-2-106.8-2.1C974.3,304,979.3,323.2,984.2,342.4"
				/>
			<path class="st0" d="M1117.1,346.2c0,84.6,0,169.2,0,253.9c77.7,3.8,155.1,10.6,231.7,20.1c4.9-18.5,9.8-37.1,14.7-55.6
				c-51.3-6.6-102.9-11.9-154.8-16v-69.5c38.7,3,77.2,6.8,115.6,11.2c4.9-18.6,9.8-37.1,14.7-55.7c-43.2-5.2-86.7-9.6-130.3-13V352
				c51.9,4.1,103.5,9.4,154.8,16v-57.5c-86.2-11.1-173.5-18.7-261.2-22.6C1107.2,307.4,1112.2,326.8,1117.1,346.2"/>
			<path class="st0" d="M1654.9,362.5c4.7,20.2,9.4,40.5,14.1,60.8c26.2,6.1,52.3,12.7,78.1,19.5c0,84.6,0,169.2,0,253.9
				c28.5,7.5,56.7,15.4,84.6,23.7c0-84.6,0-169.2,0-253.9c25.2,7.5,50.3,15.3,75,23.4c4.4-17.7,8.9-35.4,13.3-53.1
				C1834.2,408.2,1745.6,383.4,1654.9,362.5"/>
			<path class="st0" d="M1546.5,593.7c-20.9-4-41.9-7.8-63-11.3c0-65.5,0-130.9,0-196.4c21.1,3.6,42.1,7.3,63,11.3
				c0,17.2,0,34.2,0,51.4c29.5,5.6,58.7,11.7,87.8,18.1c0-28.3,0-56.6,0-84.9c-7.9-9.7-15.7-19.4-23.6-29.1
				c-63.3-13.5-127.6-25.1-192.5-34.6c-8.1,6.8-16.2,13.6-24.3,20.5c0,87.8,0,175.6,0,263.5c8.1,9.1,16.2,18.3,24.3,27.4
				c64.9,9.6,129.2,21.1,192.5,34.6c7.9-6.3,15.8-12.6,23.6-18.8c0-28.3,0-56.6,0-84.9c-29-6.5-58.4-12.5-87.8-18.1
				C1546.5,559.4,1546.5,576.5,1546.5,593.7"/>
		</g>
	</g>
</g>
</svg>
