<?xml version="1.0" encoding="utf-8"?>
<!-- Generator: Adobe Illustrator 23.0.1, SVG Export Plug-In . SVG Version: 6.00 Build 0)  -->
<svg version="1.1" id="Layer_1" xmlns="http://www.w3.org/2000/svg" xmlns:xlink="http://www.w3.org/1999/xlink" x="0px" y="0px"
	 viewBox="0 0 1920 1080" style="enable-background:new 0 0 1920 1080;" xml:space="preserve">
<style type="text/css">
	.st0{fill:#007CBA;}
	.st1{fill:#F4B223;}
	.st2{fill:#002856;}
	.st3{fill:#FFFFFF;}
</style>
<g>
	<path class="st0" d="M1242.14,342.93H893.89l14.63-110.82H655.5l14.79,126.78l-50.2,380.14h196.66l-14.63,110.82h221.33
		l14.8-110.88h161.56l64.4-57.48l35.89-271.17L1242.14,342.93z"/>
	<path class="st1" d="M1191.68,717.68l52.45-46.8l33.6-253.88l-45.37-52.76H869.59l14.63-110.82H679.43l12.33,105.64L644.4,717.73
		h196.66l-14.63,110.82h178.38l14.8-110.88H1191.68z M859.26,579.9h-18.14l24.16-182.96l8.51,72.94L859.26,579.9z"/>
	<polygon class="st2" points="1187.62,707.02 1234.09,665.56 1266.55,420.32 1227.47,374.88 873.42,374.88 884.52,469.95 
		868.59,590.55 828.96,590.55 872.08,264.06 691.4,264.06 702.49,359.14 656.55,707.08 853.2,707.08 838.57,817.9 995.48,817.9 
		1010.28,707.02 	"/>
	<path class="st3" d="M1179.5,685.72l34.51-30.8l30.17-227.95l-26.48-30.8H897.35l8.63,73.93l-18.72,141.73h-82.6l43.11-326.48
		H715.33l8.63,73.93l-43.11,326.48H877.5L862.87,796.6h113.96l14.8-110.88H1179.5z M1082.99,470.09h51.16l-18.74,141.72h-40.27
		l15.24-115.59h-17.41L1082.99,470.09z M1008.72,470.09h51.16l-18.74,141.72h-40.27l15.24-115.59H998.7L1008.72,470.09z"/>
	<polygon class="st2" points="1000.87,611.81 1041.14,611.81 1059.88,470.09 1008.72,470.09 998.7,496.22 1016.11,496.22 	"/>
	<polygon class="st2" points="1075.14,611.81 1115.41,611.81 1134.15,470.09 1082.99,470.09 1072.98,496.22 1090.38,496.22 	"/>
</g>
</svg>
